# Blender v2.92.0 OBJ File: 'Fence.blend'
# www.blender.org
mtllib Fence.mtl
o Cylinder_Cylinder.001
v 0.000000 0.132367 -5.000000
v 0.000000 7.005402 -5.000000
v 0.000000 0.132367 -6.000000
v 0.000000 6.500000 -6.000000
v 0.866025 0.132367 -4.500000
v 0.866025 6.500000 -4.500000
v -0.866025 0.132367 -4.500000
v -0.866025 6.500000 -4.500000
vt 0.750000 0.250000
vt 0.750000 0.490000
vt 0.957846 0.130000
vt 0.250000 0.250000
vt 0.457846 0.130000
vt 0.250000 0.490000
vt 1.000000 0.500000
vt 1.000000 1.000000
vt 0.666667 1.000000
vt 0.666667 0.500000
vt 0.542154 0.130000
vt 0.042154 0.130000
vt 0.333333 1.000000
vt 0.333333 0.500000
vt -0.000000 1.000000
vt -0.000000 0.500000
vn 0.0000 -1.0000 0.0000
vn 0.6157 0.7033 -0.3554
vn 0.8660 0.0000 -0.5000
vn 0.0000 0.7033 0.7109
vn 0.0000 0.0000 1.0000
vn -0.6157 0.7033 -0.3554
vn -0.8660 0.0000 -0.5000
usemtl None
s off
f 1/1/1 3/2/1 5/3/1
f 2/4/2 6/5/2 4/6/2
f 3/7/3 4/8/3 6/9/3 5/10/3
f 1/1/1 5/3/1 7/11/1
f 2/4/4 8/12/4 6/5/4
f 5/10/5 6/9/5 8/13/5 7/14/5
f 1/1/1 7/11/1 3/2/1
f 2/4/6 4/6/6 8/12/6
f 7/14/7 8/13/7 4/15/7 3/16/7
o Cylinder.001_Cylinder.002
v 0.000000 0.132367 4.686187
v 0.000000 7.005402 4.686187
v 0.866025 0.132367 4.186187
v 0.866025 6.500000 4.186187
v -0.000000 0.132367 5.686187
v -0.000000 6.500000 5.686187
v -0.866025 0.132367 4.186187
v -0.866025 6.500000 4.186187
vt 0.750000 0.250000
vt 0.750000 0.490000
vt 0.957846 0.130000
vt 0.250000 0.250000
vt 0.457846 0.130000
vt 0.250000 0.490000
vt 1.000000 0.500000
vt 1.000000 1.000000
vt 0.666667 1.000000
vt 0.666667 0.500000
vt 0.542154 0.130000
vt 0.042154 0.130000
vt 0.333333 1.000000
vt 0.333333 0.500000
vt -0.000000 1.000000
vt -0.000000 0.500000
vn 0.0000 -1.0000 0.0000
vn 0.6157 0.7033 0.3554
vn 0.8660 0.0000 0.5000
vn -0.6157 0.7033 0.3554
vn -0.8660 0.0000 0.5000
vn 0.0000 0.7033 -0.7109
vn 0.0000 0.0000 -1.0000
usemtl None
s off
f 9/17/8 11/18/8 13/19/8
f 10/20/9 14/21/9 12/22/9
f 11/23/10 12/24/10 14/25/10 13/26/10
f 9/17/8 13/19/8 15/27/8
f 10/20/11 16/28/11 14/21/11
f 13/26/12 14/25/12 16/29/12 15/30/12
f 9/17/8 15/27/8 11/18/8
f 10/20/13 12/22/13 16/28/13
f 15/30/14 16/29/14 12/31/14 11/32/14
o Cube_Cube.001
v -0.186652 4.072050 6.816809
v -0.186652 5.672050 6.816809
v -0.122605 4.346560 -6.816809
v -0.122605 5.397541 -6.816809
v 0.186652 4.072050 6.816809
v 0.186652 5.672050 6.816809
v 0.122605 4.346560 -6.816809
v 0.122605 5.397541 -6.816809
vt 0.375000 0.000000
vt 0.625000 0.000000
vt 0.625000 0.250000
vt 0.375000 0.250000
vt 0.625000 0.500000
vt 0.375000 0.500000
vt 0.625000 0.750000
vt 0.375000 0.750000
vt 0.625000 1.000000
vt 0.375000 1.000000
vt 0.125000 0.500000
vt 0.125000 0.750000
vt 0.875000 0.500000
vt 0.875000 0.750000
vn -1.0000 0.0000 -0.0047
vn 0.0000 0.0000 -1.0000
vn 1.0000 0.0000 -0.0047
vn 0.0000 0.0000 1.0000
vn 0.0000 -0.9998 -0.0201
vn 0.0000 0.9998 -0.0201
usemtl None
s off
f 17/33/15 18/34/15 20/35/15 19/36/15
f 19/36/16 20/35/16 24/37/16 23/38/16
f 23/38/17 24/37/17 22/39/17 21/40/17
f 21/40/18 22/39/18 18/41/18 17/42/18
f 19/43/19 23/38/19 21/40/19 17/44/19
f 24/37/20 20/45/20 18/46/20 22/39/20
o Cube.001_Cube.002
v 0.186651 1.669218 -6.860593
v 0.186651 3.263130 -6.721144
v 0.122606 0.754435 6.745069
v 0.122606 1.801417 6.836668
v -0.186653 1.669218 -6.860593
v -0.186653 3.263130 -6.721144
v -0.122604 0.754435 6.745069
v -0.122604 1.801417 6.836668
vt 0.375000 0.000000
vt 0.625000 0.000000
vt 0.625000 0.250000
vt 0.375000 0.250000
vt 0.625000 0.500000
vt 0.375000 0.500000
vt 0.625000 0.750000
vt 0.375000 0.750000
vt 0.625000 1.000000
vt 0.375000 1.000000
vt 0.125000 0.500000
vt 0.125000 0.750000
vt 0.875000 0.500000
vt 0.875000 0.750000
vn 1.0000 -0.0004 0.0047
vn 0.0000 -0.0872 0.9962
vn -1.0000 -0.0004 0.0047
vn 0.0000 0.0872 -0.9962
vn 0.0000 -0.9977 -0.0671
vn 0.0000 0.9942 0.1072
usemtl None
s off
f 25/47/21 26/48/21 28/49/21 27/50/21
f 27/50/22 28/49/22 32/51/22 31/52/22
f 31/52/23 32/51/23 30/53/23 29/54/23
f 29/54/24 30/53/24 26/55/24 25/56/24
f 27/57/25 31/52/25 29/54/25 25/58/25
f 32/51/26 28/59/26 26/60/26 30/53/26
