# Blender v2.82 (sub 7) OBJ File: 'Gold.blend'
# www.blender.org
mtllib Gold.mtl
o Icosphere.001
v 0.277668 0.139634 -0.837942
v 0.641049 0.417234 -0.573933
v 0.138872 0.417234 -0.410763
v -0.171499 0.417234 -0.837942
v 0.138872 0.417234 -1.265121
v 0.641049 0.417234 -1.101951
v 0.416464 0.866404 -0.410763
v -0.085713 0.866404 -0.573933
v -0.085713 0.866404 -1.101951
v 0.416464 0.866404 -1.265121
v 0.726835 0.866404 -0.837942
v 0.277668 1.144004 -0.837942
vt 0.818181 0.000000
vt 0.727272 0.157461
vt 0.909090 0.157461
vt 0.636363 0.000000
vt 0.545454 0.157461
vt 0.090909 0.000000
vt 0.000000 0.157461
vt 0.181818 0.157461
vt 0.272727 0.000000
vt 0.363636 0.157461
vt 0.454545 0.000000
vt 0.636363 0.314921
vt 0.818181 0.314921
vt 0.090909 0.314921
vt 0.272727 0.314921
vt 0.454545 0.314921
vt 1.000000 0.314921
vt 0.727272 0.472382
vt 0.909090 0.472382
vt 0.181818 0.472382
vt 0.363636 0.472382
vt 0.545454 0.472382
vn 0.1876 -0.7947 0.5774
vn 0.6071 -0.7947 0.0000
vn -0.4911 -0.7947 0.3568
vn -0.4911 -0.7947 -0.3568
vn 0.1876 -0.7947 -0.5774
vn 0.9822 -0.1876 0.0000
vn 0.3035 -0.1876 0.9342
vn -0.7946 -0.1876 0.5774
vn -0.7946 -0.1876 -0.5774
vn 0.3035 -0.1876 -0.9342
vn 0.7946 0.1876 0.5774
vn -0.3035 0.1876 0.9342
vn -0.9822 0.1876 0.0000
vn -0.3035 0.1876 -0.9342
vn 0.7946 0.1876 -0.5774
vn 0.4911 0.7947 0.3568
vn -0.1876 0.7947 0.5774
vn -0.6071 0.7947 0.0000
vn -0.1876 0.7947 -0.5774
vn 0.4911 0.7947 -0.3568
usemtl Gold_2
s off
f 1/1/1 2/2/1 3/3/1
f 2/2/2 1/4/2 6/5/2
f 1/6/3 3/7/3 4/8/3
f 1/9/4 4/8/4 5/10/4
f 1/11/5 5/10/5 6/5/5
f 2/2/6 6/5/6 11/12/6
f 3/3/7 2/2/7 7/13/7
f 4/8/8 3/7/8 8/14/8
f 5/10/9 4/8/9 9/15/9
f 6/5/10 5/10/10 10/16/10
f 2/2/11 11/12/11 7/13/11
f 3/3/12 7/13/12 8/17/12
f 4/8/13 8/14/13 9/15/13
f 5/10/14 9/15/14 10/16/14
f 6/5/15 10/16/15 11/12/15
f 7/13/16 11/12/16 12/18/16
f 8/17/17 7/13/17 12/19/17
f 9/15/18 8/14/18 12/20/18
f 10/16/19 9/15/19 12/21/19
f 11/12/20 10/16/20 12/22/20
o Icosphere.002
v 0.325680 -0.347418 0.608672
v 0.640004 -0.415142 0.911647
v 0.220109 -0.518556 1.002051
v -0.038778 -0.211434 0.818105
v 0.221127 0.081790 0.614017
v 0.640633 -0.044111 0.671831
v 0.469811 -0.321014 1.308333
v 0.050304 -0.195113 1.250519
v 0.050933 0.175918 1.010703
v 0.470828 0.279332 0.920299
v 0.729715 -0.027790 1.104245
v 0.365258 0.108195 1.313678
vt 0.818181 0.000000
vt 0.727272 0.157461
vt 0.909090 0.157461
vt 0.636363 0.000000
vt 0.545454 0.157461
vt 0.090909 0.000000
vt 0.000000 0.157461
vt 0.181818 0.157461
vt 0.272727 0.000000
vt 0.363636 0.157461
vt 0.454545 0.000000
vt 0.636363 0.314921
vt 0.818181 0.314921
vt 0.090909 0.314921
vt 0.272727 0.314921
vt 0.454545 0.314921
vt 1.000000 0.314921
vt 0.727272 0.472382
vt 0.909090 0.472382
vt 0.181818 0.472382
vt 0.363636 0.472382
vt 0.545454 0.472382
vn 0.1491 -0.9207 -0.3605
vn 0.5690 -0.4471 -0.6902
vn -0.5285 -0.7174 -0.4539
vn -0.5275 -0.1180 -0.8413
vn 0.1508 0.0490 -0.9874
vn 0.9723 -0.1280 -0.1955
vn 0.2930 -0.8944 0.3379
vn -0.8034 -0.5653 0.1869
vn -0.8018 0.4045 -0.4400
vn 0.2957 0.6747 -0.6762
vn 0.8018 -0.4045 0.4400
vn -0.2957 -0.6747 0.6762
vn -0.9723 0.1280 0.1955
vn -0.2930 0.8944 -0.3379
vn 0.8034 0.5653 -0.1869
vn 0.5275 0.1180 0.8413
vn -0.1508 -0.0490 0.9874
vn -0.5690 0.4471 0.6902
vn -0.1491 0.9207 0.3605
vn 0.5285 0.7174 0.4539
usemtl Gold_2
s off
f 13/23/21 14/24/21 15/25/21
f 14/24/22 13/26/22 18/27/22
f 13/28/23 15/29/23 16/30/23
f 13/31/24 16/30/24 17/32/24
f 13/33/25 17/32/25 18/27/25
f 14/24/26 18/27/26 23/34/26
f 15/25/27 14/24/27 19/35/27
f 16/30/28 15/29/28 20/36/28
f 17/32/29 16/30/29 21/37/29
f 18/27/30 17/32/30 22/38/30
f 14/24/31 23/34/31 19/35/31
f 15/25/32 19/35/32 20/39/32
f 16/30/33 20/36/33 21/37/33
f 17/32/34 21/37/34 22/38/34
f 18/27/35 22/38/35 23/34/35
f 19/35/36 23/34/36 24/40/36
f 20/39/37 19/35/37 24/41/37
f 21/37/38 20/36/38 24/42/38
f 22/38/39 21/37/39 24/43/39
f 23/34/40 22/38/40 24/44/40
o Icosphere.003
v -0.013235 -0.918507 0.439384
v 0.654368 -0.147835 0.766039
v -0.398375 -0.051512 0.935687
v -0.908765 -0.451674 0.083797
v -0.171438 -0.795308 -0.612340
v 0.794621 -0.607522 -0.190687
v 0.171438 0.795308 0.612340
v -0.794621 0.607522 0.190687
v -0.654368 0.147835 -0.766039
v 0.398375 0.051512 -0.935687
v 0.908765 0.451674 -0.083797
v 0.013235 0.918507 -0.439384
vt 0.818181 0.000000
vt 0.727272 0.157461
vt 0.909090 0.157461
vt 0.636363 0.000000
vt 0.545454 0.157461
vt 0.090909 0.000000
vt 0.000000 0.157461
vt 0.181818 0.157461
vt 0.272727 0.000000
vt 0.363636 0.157461
vt 0.454545 0.000000
vt 0.636363 0.314921
vt 0.818181 0.314921
vt 0.090909 0.314921
vt 0.272727 0.314921
vt 0.454545 0.314921
vt 1.000000 0.314921
vt 0.727272 0.472382
vt 0.909090 0.472382
vt 0.181818 0.472382
vt 0.363636 0.472382
vt 0.545454 0.472382
vn 0.1000 -0.4605 0.8820
vn 0.5915 -0.6895 0.4180
vn -0.5439 -0.5856 0.6010
vn -0.4504 -0.8921 -0.0367
vn 0.2513 -0.9563 -0.1498
vn 0.9713 -0.1251 0.2025
vn 0.1761 0.2455 0.9533
vn -0.8658 0.0430 0.4985
vn -0.7145 -0.4528 -0.5333
vn 0.4208 -0.5567 -0.7163
vn 0.7145 0.4528 0.5333
vn -0.4208 0.5567 0.7163
vn -0.9713 0.1251 -0.2025
vn -0.1761 -0.2455 -0.9533
vn 0.8658 -0.0430 -0.4985
vn 0.4504 0.8921 0.0367
vn -0.2513 0.9563 0.1498
vn -0.5915 0.6895 -0.4180
vn -0.1000 0.4605 -0.8820
vn 0.5439 0.5856 -0.6010
usemtl Gold_1
s off
f 25/45/41 26/46/41 27/47/41
f 26/46/42 25/48/42 30/49/42
f 25/50/43 27/51/43 28/52/43
f 25/53/44 28/52/44 29/54/44
f 25/55/45 29/54/45 30/49/45
f 26/46/46 30/49/46 35/56/46
f 27/47/47 26/46/47 31/57/47
f 28/52/48 27/51/48 32/58/48
f 29/54/49 28/52/49 33/59/49
f 30/49/50 29/54/50 34/60/50
f 26/46/51 35/56/51 31/57/51
f 27/47/52 31/57/52 32/61/52
f 28/52/53 32/58/53 33/59/53
f 29/54/54 33/59/54 34/60/54
f 30/49/55 34/60/55 35/56/55
f 31/57/56 35/56/56 36/62/56
f 32/61/57 31/57/57 36/63/57
f 33/59/58 32/58/58 36/64/58
f 34/60/59 33/59/59 36/65/59
f 35/56/60 34/60/60 36/66/60
