# Blender v2.82 (sub 7) OBJ File: 'Pickaxe.blend'
# www.blender.org
mtllib Pickaxe.mtl
o SupportMaterial_Cube.001
v -1.000000 2.172046 1.000000
v -1.000000 4.172046 1.000000
v -1.000000 2.172046 -1.000000
v -1.000000 4.172046 -1.000000
v 1.000000 2.172046 1.000000
v 1.000000 4.172046 1.000000
v 1.000000 2.172046 -1.000000
v 1.000000 4.172046 -1.000000
v 0.000000 -5.000000 -1.000000
v -0.000000 5.000000 -0.651317
v 0.866025 -5.000000 -0.500000
v 0.564057 5.000000 -0.325659
v 0.866025 -5.000000 0.500000
v 0.564057 5.000000 0.325659
v -0.000000 -5.000000 1.000000
v -0.000000 5.000000 0.651317
v -0.866025 -5.000000 0.500000
v -0.564057 5.000000 0.325658
v -0.866025 -5.000000 -0.500000
v -0.564057 5.000000 -0.325658
v -0.768115 2.789031 4.107876
v -0.768115 3.555061 4.107876
v -0.896751 2.724888 -4.101865
v -0.896751 3.619204 -4.101865
v 0.768115 2.789031 4.107876
v 0.768115 3.555061 4.107876
v 0.896751 2.724888 -4.101865
v 0.896751 3.619204 -4.101865
v -0.252075 3.046350 4.940870
v -0.252075 3.297741 4.940870
v 0.252075 3.297741 4.940870
v 0.252075 3.046350 4.940870
vt 0.375000 0.000000
vt 0.625000 0.000000
vt 0.625000 0.250000
vt 0.375000 0.250000
vt 0.625000 0.500000
vt 0.375000 0.500000
vt 0.625000 0.750000
vt 0.375000 0.750000
vt 0.625000 1.000000
vt 0.375000 1.000000
vt 0.125000 0.500000
vt 0.125000 0.750000
vt 0.875000 0.500000
vt 0.875000 0.750000
vt 1.000000 0.500000
vt 1.000000 1.000000
vt 0.833333 1.000000
vt 0.833333 0.500000
vt 0.666667 1.000000
vt 0.666667 0.500000
vt 0.500000 1.000000
vt 0.500000 0.500000
vt 0.333333 1.000000
vt 0.333333 0.500000
vt 0.457846 0.370000
vt 0.250000 0.490000
vt 0.042154 0.370000
vt 0.042154 0.130000
vt 0.250000 0.010000
vt 0.457846 0.130000
vt 0.166667 1.000000
vt 0.166667 0.500000
vt -0.000000 1.000000
vt -0.000000 0.500000
vt 0.750000 0.490000
vt 0.957846 0.370000
vt 0.957846 0.130000
vt 0.750000 0.010000
vt 0.542154 0.130000
vt 0.542154 0.370000
vt 0.375000 0.000000
vt 0.625000 0.000000
vt 0.625000 0.250000
vt 0.375000 0.250000
vt 0.625000 0.500000
vt 0.375000 0.500000
vt 0.625000 0.750000
vt 0.375000 0.750000
vt 0.875000 0.750000
vt 0.875000 0.750000
vt 0.625000 0.750000
vt 0.125000 0.500000
vt 0.125000 0.750000
vt 0.875000 0.500000
vt 0.375000 0.750000
vt 0.625000 1.000000
vt 0.375000 1.000000
vt 0.375000 0.000000
vt 0.625000 0.000000
vt 0.125000 0.750000
vn -1.0000 0.0000 0.0000
vn 0.0000 0.0000 -1.0000
vn 1.0000 0.0000 0.0000
vn 0.0000 0.0000 1.0000
vn 0.0000 -1.0000 0.0000
vn 0.0000 1.0000 0.0000
vn 0.4998 0.0302 -0.8656
vn 0.9995 0.0302 0.0000
vn 0.4998 0.0302 0.8656
vn -0.4998 0.0302 0.8656
vn -0.9995 0.0302 0.0000
vn -0.4998 0.0302 -0.8656
vn -0.9999 0.0000 0.0157
vn 0.9999 0.0000 0.0157
vn 0.0000 0.9555 0.2951
vn 0.0000 -1.0000 0.0078
vn 0.0000 1.0000 0.0078
vn 0.8501 0.0000 0.5266
vn -0.8501 0.0000 0.5266
vn 0.0000 -0.9555 0.2951
usemtl SupportMaterial
s off
f 1/1/1 2/2/1 4/3/1 3/4/1
f 3/4/2 4/3/2 8/5/2 7/6/2
f 7/6/3 8/5/3 6/7/3 5/8/3
f 5/8/4 6/7/4 2/9/4 1/10/4
f 3/11/5 7/6/5 5/8/5 1/12/5
f 8/5/6 4/13/6 2/14/6 6/7/6
usemtl StickMaterial
f 9/15/7 10/16/7 12/17/7 11/18/7
f 11/18/8 12/17/8 14/19/8 13/20/8
f 13/20/9 14/19/9 16/21/9 15/22/9
f 15/22/10 16/21/10 18/23/10 17/24/10
f 12/25/6 10/26/6 20/27/6 18/28/6 16/29/6 14/30/6
f 17/24/11 18/23/11 20/31/11 19/32/11
f 19/32/12 20/31/12 10/33/12 9/34/12
f 9/35/5 11/36/5 13/37/5 15/38/5 17/39/5 19/40/5
usemtl PickMaterial
f 21/41/13 22/42/13 24/43/13 23/44/13
f 23/44/2 24/43/2 28/45/2 27/46/2
f 27/46/14 28/45/14 26/47/14 25/48/14
f 26/47/15 22/49/15 30/50/15 31/51/15
f 23/52/16 27/46/16 25/48/16 21/53/16
f 28/45/17 24/54/17 22/49/17 26/47/17
f 32/55/4 31/51/4 30/56/4 29/57/4
f 25/48/18 26/47/18 31/51/18 32/55/18
f 22/42/19 21/41/19 29/58/19 30/59/19
f 21/53/20 25/48/20 32/55/20 29/60/20
